<svg xmlns="http://www.w3.org/2000/svg" viewBox="0 0 512 512" width="512" height="512">
  <defs>
    <linearGradient id="bg" x1="0" y1="0" x2="0" y2="1">
      <stop offset="0" stop-color="#0a1628"/>
      <stop offset="1" stop-color="#020617"/>
    </linearGradient>
  </defs>
  <!-- rounded-square dark background -->
  <rect width="512" height="512" rx="96" fill="url(#bg)"/>
  <!-- subtle grid -->
  <g stroke="#1e293b" stroke-width="1" opacity="0.5">
    <path d="M64 0V512M128 0V512M192 0V512M256 0V512M320 0V512M384 0V512M448 0V512"/>
    <path d="M0 64H512M0 128H512M0 192H512M0 256H512M0 320H512M0 384H512M0 448H512"/>
  </g>
  <!-- four stacked bars, lightest on top -->
  <g>
    <rect x="196" y="168" width="120" height="44" rx="12" fill="#7fffb0"/>
    <rect x="176" y="224" width="160" height="44" rx="12" fill="#00e070"/>
    <rect x="156" y="280" width="200" height="44" rx="12" fill="#34d377"/>
    <rect x="136" y="336" width="240" height="44" rx="12" fill="#00a854"/>
  </g>
</svg>
